<svg width="180" height="180" viewBox="0 0 180 180" fill="none" xmlns="http://www.w3.org/2000/svg">
<g opacity="0.1" clip-path="url(#clip0_286_770)">
<mask id="mask0_286_770" style="mask-type:luminance" maskUnits="userSpaceOnUse" x="0" y="0" width="180" height="180">
<path d="M0 0L180 0L180 180L0 180L0 0Z" fill="white"/>
</mask>
<g mask="url(#mask0_286_770)">
<path d="M49.125 170.625C57.6 170.625 66.525 168.6 75.75 164.7C84.75 160.875 93.825 155.625 102.675 149.25C111.45 142.8 119.925 135.6 127.95 127.725C135.9 119.7 143.1 111.225 149.475 102.525C155.925 93.525 161.1 84.525 164.775 75.825C168.675 66.525 170.625 57.525 170.625 49.05C170.625 43.2 169.575 37.65 167.55 32.475C165.45 27.15 162.075 22.2 157.5 17.925C151.725 12.225 145.125 9.375 138.075 9.375C135.15 9.375 132.15 10.05 129.6 11.25C126.675 12.6 124.2 14.625 122.4 17.325L105 41.85C103.425 44.025 102.225 46.125 101.4 48.225C100.425 50.475 99.9 52.725 99.9 54.9C99.9 57.75 100.725 60.525 102.3 63.15C103.425 65.175 105.15 67.35 107.325 69.525L112.425 74.85C112.35 75.075 112.275 75.225 112.2 75.375C111.3 76.95 109.5 79.65 106.05 83.7C102.375 87.9 98.925 91.725 95.475 95.25C91.05 99.6 87.375 103.05 83.925 105.9C79.65 109.5 76.875 111.3 75.225 112.125L75.375 112.5L69.9 107.1C67.575 104.775 65.325 103.05 63.15 101.925C59.025 99.375 53.775 98.925 48.525 101.1C46.575 101.925 44.475 103.05 42.225 104.625L17.325 122.325C14.55 124.2 12.525 126.6 11.325 129.45C10.2 132.3 9.675 134.925 9.675 137.55C9.675 141.15 10.5 144.75 12.075 148.125C13.65 151.5 15.6 154.425 18.075 157.125C22.35 161.85 27 165.225 32.4 167.4C37.575 169.5 43.2 170.625 49.125 170.625ZM138.075 20.625C142.2 20.625 146.025 22.425 149.7 26.025C153.15 29.25 155.55 32.775 157.05 36.6C158.625 40.5 159.375 44.625 159.375 49.05C159.375 56.025 157.725 63.6 154.425 71.4C151.05 79.35 146.325 87.6 140.325 95.85C134.325 104.1 127.5 112.125 120 119.7C112.5 127.125 104.4 134.025 96.075 140.1C87.975 146.025 79.65 150.825 71.4 154.275C58.575 159.75 46.575 161.025 36.675 156.9C32.85 155.325 29.475 152.925 26.4 149.475C24.675 147.6 23.325 145.575 22.2 143.175C21.3 141.3 20.85 139.35 20.85 137.4C20.85 136.2 21.075 135 21.675 133.65C21.9 133.2 22.35 132.375 23.775 131.4L48.675 113.7C50.175 112.65 51.525 111.9 52.8 111.375C54.45 110.7 55.125 110.025 57.675 111.6C59.175 112.35 60.525 113.475 62.025 114.975L67.725 120.6C70.65 123.45 75.15 124.125 78.6 122.85L80.625 121.95C83.7 120.3 87.3 117.75 91.275 114.375C94.875 111.3 98.775 107.7 103.5 103.05C107.175 99.3 110.85 95.325 114.675 90.9C118.2 86.775 120.75 83.25 122.325 80.325L123.225 78.075C123.675 76.35 123.825 75.375 123.825 74.325C123.825 71.625 122.85 69.225 120.975 67.35L115.35 61.5C113.85 60 112.725 58.575 111.975 57.3C111.375 56.325 111.15 55.5 111.15 54.75C111.15 54.15 111.375 53.25 111.75 52.35C112.275 51.15 113.1 49.8 114.15 48.375L131.55 23.775C132.3 22.725 133.2 21.975 134.325 21.45C135.525 20.925 136.8 20.625 138.075 20.625ZM75.375 112.575L76.575 117.675L74.55 112.425C74.925 112.35 75.225 112.425 75.375 112.575Z" fill="white"/>
</g>
</g>
<defs>
<clipPath id="clip0_286_770">
<rect width="180" height="180" fill="white" transform="matrix(-1 0 0 1 180 0)"/>
</clipPath>
</defs>
</svg>
