<svg width="32" height="32" viewBox="0 0 32 32" fill="none" xmlns="http://www.w3.org/2000/svg">
<path d="M12.7599 25.0935C13.0133 25.0935 13.2666 25.0001 13.4666 24.8001C13.8533 24.4135 13.8533 23.7735 13.4666 23.3868L6.07992 16.0001L13.4666 8.61349C13.8533 8.22682 13.8533 7.58682 13.4666 7.20016C13.0799 6.81349 12.4399 6.81349 12.0533 7.20016L3.95992 15.2935C3.57326 15.6801 3.57326 16.3201 3.95992 16.7068L12.0533 24.8001C12.2533 25.0001 12.5066 25.0935 12.7599 25.0935Z" fill="#3B241E"/>
<path d="M4.89337 17H27.3334C27.88 17 28.3334 16.5467 28.3334 16C28.3334 15.4533 27.88 15 27.3334 15H4.89337C4.34671 15 3.89337 15.4533 3.89337 16C3.89337 16.5467 4.34671 17 4.89337 17Z" fill="#3B241E"/>
</svg>
