<svg width="32" height="32" viewBox="0 0 32 32" fill="none" xmlns="http://www.w3.org/2000/svg">
<path d="M19.2401 25.0935C18.9867 25.0935 18.7334 25.0001 18.5334 24.8001C18.1467 24.4135 18.1467 23.7735 18.5334 23.3868L25.9201 16.0001L18.5334 8.61349C18.1467 8.22682 18.1467 7.58682 18.5334 7.20016C18.9201 6.81349 19.5601 6.81349 19.9467 7.20016L28.0401 15.2935C28.4267 15.6801 28.4267 16.3201 28.0401 16.7068L19.9467 24.8001C19.7467 25.0001 19.4934 25.0935 19.2401 25.0935Z" fill="#3B241E"/>
<path d="M27.1066 17H4.66663C4.11996 17 3.66663 16.5467 3.66663 16C3.66663 15.4533 4.11996 15 4.66663 15H27.1066C27.6533 15 28.1066 15.4533 28.1066 16C28.1066 16.5467 27.6533 17 27.1066 17Z" fill="#3B241E"/>
</svg>
